<?xml version="1.0" encoding="utf-8"?>
<!-- Generator: Adobe Illustrator 16.0.2, SVG Export Plug-In . SVG Version: 6.00 Build 0)  -->
<!DOCTYPE svg PUBLIC "-//W3C//DTD SVG 1.1//EN" "http://www.w3.org/Graphics/SVG/1.1/DTD/svg11.dtd">
<svg version="1.1" id="Warstwa_1" xmlns="http://www.w3.org/2000/svg" xmlns:xlink="http://www.w3.org/1999/xlink" x="0px" y="0px"
	 width="142.754px" height="141.891px" viewBox="-20.809 -1.313 142.754 141.891"
	 enable-background="new -20.809 -1.313 142.754 141.891" xml:space="preserve">
<g id="aha_1_" transform="translate(-271.9 -105.155)">
	<path id="Path_31_1_" fill="#2F358F" d="M271.9,155.994c0.604-3.606,1.539-7.149,2.787-10.587c1.163,2.347,2.806,3.458,2.737,4.98
		C277.362,151.622,274.576,153.315,271.9,155.994L271.9,155.994z"/>
	<g>
		<path fill="#EC2127" d="M359.942,210.573h-0.002H359.942z"/>
		<path fill="#EC2127" d="M343.777,214.802c-0.026,0.424,0.024,0.851,0.156,1.258l0.901,3.886c0.059,0.294,0.139,0.581,0.244,0.86
			c0.049,0.111,0.146,0.197,0.264,0.232c0.201,0.031,0.406,0.019,0.602-0.042h0.005l-1.526-6.58
			C344.046,214.501,343.831,214.632,343.777,214.802z"/>
		<path fill="#EC2127" d="M336.363,215.698c-0.039,0.384-0.037,0.771,0.007,1.151l0.327,4.706c0.005,0.31,0.054,0.616,0.146,0.91
			c0.063,0.128,0.201,0.199,0.343,0.172c0.127-0.002,0.247-0.068,0.312-0.181c0.086-0.313,0.102-0.645,0.047-0.96l-0.336-4.779
			c-0.01-0.37-0.061-0.737-0.152-1.095c-0.062-0.139-0.211-0.215-0.358-0.188C336.536,215.432,336.394,215.544,336.363,215.698z"/>
		<path fill="#EC2127" d="M286.74,184.395c-2.777,1.905-6.137,2.779-9.494,2.467c-1.041-0.14-2.042-0.502-2.93-1.064
			c1.021,2.978,2.276,5.871,3.746,8.655c1.521-1.104,2.943-2.336,4.251-3.683C284.033,188.826,285.52,186.687,286.74,184.395z"/>
		<path fill="#EC2127" d="M364.085,211.807L364.085,211.807h0.006c0.164,0.261,0.363,0.495,0.597,0.697
			c0.118,0.081,0.272,0.074,0.383-0.021c0.11-0.064,0.173-0.188,0.168-0.313c-0.087-0.312-0.244-0.602-0.455-0.846l-2.769-3.923
			c-0.197-0.316-0.436-0.604-0.701-0.863c-0.121-0.087-0.289-0.078-0.398,0.021c-0.145,0.078-0.207,0.249-0.15,0.401
			c0.162,0.35,0.363,0.68,0.599,0.981L364.085,211.807z"/>
		<polygon fill="#EC2127" points="393.818,164.243 393.818,164.249 393.823,164.243 		"/>
		<polygon fill="#EC2127" points="393.818,164.243 393.818,164.243 393.818,164.238 		"/>
		<path fill="#EC2127" d="M393.818,164.249c-2.035,2.859-3.499,4.89-5.29,4.676c-3.146-0.375-2.534-4.275-4.98-4.025
			c-2.444,0.248-7.209,7.545-7.338,10.5c-1.967-0.441-16.86-2.667-28.133-0.688c-11.271,1.978-26.978,9.71-26.828,14.74
			c0.151,5.033,17.628-4.49,20.104-8.115c1.251,6.688-7.108,10.911-9.292,13.628c-2.185,2.72-0.545,5.087-1.965,8.232
			c-1.417,3.145-16.828,15.689-25.088,12.744c-8.26-2.945-3.347-28.046-5.212-28.046c-1.865,0-2.737,6.222-5.914,7.752
			c-1.976,0.927-4.137,1.399-6.319,1.375c0,0,2.254-1.188,4.193-5.247c1.94-4.064,1.468-6.211,1.34-6.19
			c-1.368,0.188-4.215,4.805-6.002,6.53c-2.278,2.206-4.481,3.883-8.269,3.729c10.141,18.031,28.686,29.735,49.325,31.132
			c33.835,2.351,63.18-22.981,65.545-56.589C393.838,168.344,393.879,166.297,393.818,164.249z M339.801,223.088
			c-0.239,0.381-0.578,0.688-0.98,0.885c-0.47,0.233-0.98,0.366-1.505,0.394c-0.507,0.043-1.019-0.017-1.505-0.166
			c-0.434-0.138-0.816-0.391-1.116-0.73c-0.284-0.325-0.478-0.718-0.56-1.137c-0.115-0.733-0.192-1.471-0.229-2.21l-0.123-1.749
			l-0.005,0.007c-0.07-1.027-0.1-1.758-0.08-2.189c0.038-0.894,0.559-1.694,1.358-2.095c0.47-0.23,0.983-0.364,1.507-0.393
			c0.508-0.042,1.02,0.014,1.504,0.168c0.857,0.27,1.502,0.981,1.68,1.865c0.113,0.73,0.191,1.467,0.23,2.206l0.125,1.749
			c0.068,1.027,0.099,1.76,0.078,2.191C340.163,222.31,340.033,222.727,339.801,223.088z M348.971,222.104L348.971,222.104
			l-1.961,0.45c-0.852,0.229-1.723,0.368-2.604,0.415c-0.41,0.007-0.81-0.108-1.15-0.334c-0.284-0.194-0.504-0.466-0.646-0.782
			c-0.222-0.613-0.399-1.243-0.528-1.886l-0.815-3.501c-0.169-0.599-0.265-1.211-0.287-1.832c0.004-0.294,0.101-0.578,0.276-0.812
			c0.188-0.23,0.43-0.417,0.697-0.538c0.448-0.187,0.908-0.327,1.385-0.424l3.309-0.755l2.327,9.997L348.971,222.104
			L348.971,222.104z M348.588,214.817l3.164-1.204l0.641,1.651l-3.166,1.202L348.588,214.817z M359.364,217.84l-3.455-3.438
			l2.112,4.115l-2.002,1.012v0.003h-0.002l0.002-0.003l-4.69-9.143l2.1-1.063l3.381,3.525l-2.135-4.155l2.004-1.013l4.691,9.146
			L359.364,217.84z M367.171,212.802c-0.28,0.439-0.652,0.816-1.09,1.105c-0.412,0.296-0.882,0.507-1.377,0.626
			c-0.441,0.104-0.902,0.085-1.336-0.058c-0.412-0.132-0.777-0.369-1.068-0.689c-0.479-0.567-0.93-1.161-1.344-1.775l-1.018-1.438
			h0.002c-0.594-0.848-0.993-1.457-1.201-1.836c-0.431-0.782-0.398-1.737,0.078-2.488c0.284-0.439,0.654-0.813,1.092-1.104
			c0.41-0.296,0.879-0.509,1.377-0.628c0.877-0.203,1.795,0.081,2.404,0.744c0.287,0.316,0.734,0.91,1.346,1.775l1.012,1.438
			c0.433,0.593,0.836,1.204,1.203,1.841c0.211,0.369,0.313,0.792,0.304,1.22C367.542,211.988,367.415,212.423,367.171,212.802z
			 M376.099,204.749l-2.789-2.291l-2.694-2.203c1.223,1.313,2.75,3.116,4.58,5.411l-1.941,1.998
			c-0.242-0.182-1.131-0.896-2.656-2.143l-3.026-2.498c1.692,1.828,3.28,3.691,4.757,5.593l-1.813,1.865v0.012h-0.002l-6.604-7.98
			l2.334-2.4c1.356,0.879,2.843,1.93,4.454,3.153c-0.545-0.668-1.67-2.09-3.371-4.267l2.317-2.385l8.269,6.271L376.099,204.749z
			 M381.096,198.056l-3.367-2.173l2.719,3.166l-1.374,2.104h-0.005l-3.072-3.808l-5.675-1.663l1.513-2.313l4.313,1.493l-3.717-2.398
			l1.466-2.237l8.664,5.592L381.096,198.056z M383.493,194.199l-1.824-0.964l0.84-1.571l-1.729-0.915l-0.789,1.471l-1.736-0.916
			l0.789-1.471l-2.008-1.059l-0.924,1.729l-1.826-0.966l2.188-4.087l9.118,4.818h0.006L383.493,194.199z M386.931,186.956v-0.007
			l-10.272-1.895l0.895-2.585l1.804,0.477l0.313-0.901l-1.703-0.749l0.902-2.611l9.326,4.622L386.931,186.956z M388.878,181.056
			v-0.002l0.012,0.002H388.878z M388.878,181.054l-2.021-0.388l0.301-1.556l-8.118-1.567l0.514-2.616l8.117,1.564l0.299-1.553
			l2.033,0.395L388.878,181.054z"/>
		<path fill="#EC2127" d="M381.107,183.468h0.002c1.149,0.249,2.563,0.59,4.235,1.02c-1.785-0.896-3.094-1.522-3.938-1.881
			L381.107,183.468z"/>
	</g>
	<g>
		<path fill="#2F358F" d="M355.258,115.526l-0.004,0.001l-2.875,6.113c0.354,0.162,0.604,0.195,0.75,0.093
			c0.283-0.317,0.506-0.686,0.653-1.085l1.699-3.611c0.137-0.266,0.251-0.543,0.341-0.828c0.029-0.12,0.008-0.246-0.063-0.346
			C355.62,115.713,355.45,115.598,355.258,115.526z"/>
		<path fill="#2F358F" d="M327.416,111.449c-0.1,1.979-0.144,3.422-0.13,4.334l0.916-0.081
			C327.963,114.557,327.7,113.14,327.416,111.449z"/>
		<path fill="#2F358F" d="M300.047,121.955c-0.167-0.261-0.372-0.495-0.607-0.696c-0.119-0.077-0.275-0.064-0.382,0.03
			c-0.108,0.069-0.171,0.189-0.165,0.318c0.095,0.311,0.255,0.597,0.472,0.838l2.835,3.875c0.204,0.312,0.444,0.596,0.715,0.851
			c0.124,0.085,0.29,0.072,0.4-0.03c0.139-0.082,0.199-0.25,0.141-0.401c-0.167-0.347-0.376-0.672-0.619-0.975l-2.79-3.807V121.955
			L300.047,121.955z"/>
		<path fill="#2F358F" d="M366.956,125.206c0.146,0.011,0.362-0.16,0.649-0.511l0.356-0.437c0.168-0.156,0.267-0.376,0.269-0.606
			c-0.071-0.217-0.215-0.399-0.403-0.522l-1.443,1.774C366.542,125.055,366.739,125.16,366.956,125.206z"/>
		<path fill="#2F358F" d="M295.073,128.4c0.15-0.116,0.241-0.292,0.244-0.482c-0.074-0.25-0.221-0.473-0.422-0.641l-0.591-0.606
			c-0.244-0.252-0.443-0.38-0.602-0.377c-0.238,0.042-0.453,0.17-0.608,0.358h0.006v-0.001l1.828,1.879
			C294.984,128.482,295.033,128.437,295.073,128.4z"/>
		<path fill="#2F358F" d="M367.481,116.149c-27.917-19.383-66.258-12.465-85.642,15.451l-0.007,0.001
			c0.387-0.057,0.782-0.088,1.174-0.092c2.795,0,8.848,2.504,8.968,7.5c0.123,4.997-1.602,7.2-1.602,7.2
			c2.054,3.527,13.162,4.029,22.829,4.116c9.83-0.033,19.635-0.97,29.294-2.794l-0.961,1.477c-1.17,1.804,9.162,1.871,12.069-1.249
			c0,0-4.077,7.25-6.29,7.875s-6.523-0.746-8.62,0.876c-2.096,1.62-0.696,3.123-3.146,3.625c-2.445,0.5-20.387-0.252-22.249,1.75
			c-1.862,2.004,6.608,2.422,12.043,2.271c4.897-0.134,19.991-4.599,32.323-6.586c9.902-1.6,19.909-1.863,24.246-1.061
			c3.734,0.813,7.543,1.237,11.36,1.272C390.807,140.936,381.469,125.862,367.481,116.149z M297.116,134.629l-7.176-7.383v-0.002
			l1.945-1.866c0.397-0.406,0.845-0.756,1.335-1.042c0.298-0.173,0.638-0.262,0.982-0.257c0.298,0.021,0.586,0.118,0.836,0.284
			c0.39,0.281,0.748,0.601,1.072,0.953l0.625,0.644c0.358,0.331,0.647,0.729,0.855,1.17c0.111,0.334,0.091,0.697-0.056,1.016
			c-0.205,0.44-0.496,0.834-0.858,1.157l-0.519,0.5l2.89,2.974L297.116,134.629z M300.563,128.494
			c-0.488-0.561-0.947-1.146-1.376-1.751l-1.038-1.419c-0.443-0.585-0.856-1.19-1.239-1.817c-0.443-0.773-0.43-1.729,0.037-2.49
			c0.277-0.443,0.641-0.829,1.071-1.126c0.406-0.303,0.871-0.523,1.363-0.65c0.872-0.222,1.8,0.047,2.42,0.701
			c0.488,0.56,0.947,1.145,1.375,1.752l1.038,1.419v0.002h0.001c0.611,0.835,1.024,1.438,1.238,1.813
			c0.445,0.773,0.431,1.73-0.036,2.491c-0.275,0.444-0.639,0.829-1.069,1.126c-0.408,0.304-0.872,0.526-1.366,0.651
			C302.109,129.417,301.183,129.148,300.563,128.494z M302.437,117.227l2.305-1.375l4.257,7.036l1.404-0.835l1.065,1.759
			l-3.708,2.212L302.437,117.227z M311.517,122.47c-0.385-0.467-0.685-0.996-0.892-1.564l-0.253-0.622l2.313-0.927l0.471,1.156
			c0.076,0.243,0.205,0.464,0.376,0.65c0.125,0.076,0.28,0.081,0.41,0.013c0.153-0.051,0.265-0.184,0.291-0.343
			c0.018-0.215-0.021-0.43-0.115-0.624c-0.114-0.399-0.35-0.749-0.677-1.003c-0.491-0.181-1.001-0.313-1.517-0.396
			c-0.54-0.097-1.071-0.229-1.594-0.394c-0.309-0.127-0.585-0.319-0.812-0.564c-0.306-0.341-0.543-0.736-0.7-1.167
			c-0.258-0.532-0.385-1.12-0.37-1.711c0.063-0.439,0.27-0.845,0.585-1.154c0.398-0.394,0.879-0.697,1.403-0.894
			c0.562-0.243,1.17-0.364,1.782-0.354c0.445-0.009,0.88,0.141,1.227,0.422c0.387,0.444,0.686,0.961,0.875,1.52l0.149,0.364
			l-2.313,0.93l-0.287-0.702c-0.069-0.223-0.187-0.426-0.344-0.596c-0.107-0.067-0.241-0.073-0.354-0.015
			c-0.141,0.048-0.242,0.171-0.265,0.319c-0.019,0.206,0.02,0.416,0.11,0.601c0.085,0.252,0.23,0.482,0.421,0.667
			c0.285,0.176,0.608,0.278,0.942,0.3c0.956,0.083,1.889,0.344,2.75,0.77c0.588,0.483,1.025,1.128,1.258,1.854
			c0.238,0.5,0.361,1.044,0.371,1.596c-0.062,0.45-0.274,0.867-0.601,1.181c-0.41,0.428-0.909,0.758-1.464,0.967
			c-0.585,0.254-1.224,0.36-1.861,0.309C312.339,123.03,311.87,122.821,311.517,122.47z M320.897,120.588l-2.606,0.647l-2.499-9.959
			l2.605-0.646l0.971,3.869l0.186-4.155l2.447-0.605v0.001l-0.364,4.864l3.005,5.059l-2.692,0.667l-2.125-4.008L320.897,120.588z
			 M328.734,119.334l-0.294-1.827l-0.961,0.084v1.854l-2.772,0.239l0.458-10.341l3.873-0.335h0.002h0.001h0.001v-0.002l2.434,10.089
			L328.734,119.334z M379.397,132.759c0.447,0.281,0.833,0.653,1.129,1.092c0.41,0.54,0.673,1.182,0.747,1.857
			c0.062,0.52-0.065,1.044-0.356,1.478c-0.461,0.554-1.004,1.03-1.608,1.414l-0.806,0.561v0.002l-1.541-2.183l1.475-1.024
			c0.279-0.169,0.535-0.382,0.753-0.627c0.069-0.14,0.047-0.308-0.06-0.419c-0.082-0.159-0.262-0.245-0.437-0.208
			c-0.317,0.126-0.617,0.298-0.888,0.508l-3.934,2.735c-0.279,0.172-0.535,0.385-0.752,0.633c-0.105,0.226-0.013,0.496,0.215,0.604
			c0.075,0.035,0.158,0.049,0.241,0.042c0.339-0.133,0.652-0.313,0.938-0.539l1.058-0.734l1.542,2.185l-0.324,0.228
			c-0.606,0.464-1.277,0.838-1.99,1.109c-0.517,0.126-1.059,0.076-1.541-0.146c-0.613-0.268-1.139-0.708-1.508-1.269
			c-0.406-0.533-0.674-1.164-0.766-1.83c-0.07-0.529,0.066-1.071,0.387-1.504c0.497-0.582,1.077-1.089,1.721-1.503l2.474-1.719
			c0.455-0.326,0.929-0.625,1.417-0.892c0.354-0.176,0.747-0.258,1.146-0.241C378.576,132.384,379.012,132.518,379.397,132.759z
			 M378.499,139.16l0.002,0.005h-0.002V139.16z M342.333,115.79l-0.828,4.231l-2.641-0.51l1.975-10.072v0.005l4.465,0.862
			l-0.393,2.016l-1.83-0.354l-0.371,1.903l1.625,0.313l-0.373,1.918L342.333,115.79z M348.406,121.879l-4.479-1.276l2.847-9.864
			l4.312,1.227l-0.569,1.973l-1.722-0.489l-0.543,1.87l1.613,0.459l-0.545,1.879l-1.611-0.459l-0.625,2.169l1.895,0.54
			L348.406,121.879z M353.569,112.812l-0.002-0.006l1.82,0.845c0.811,0.341,1.582,0.764,2.304,1.267
			c0.328,0.244,0.571,0.58,0.702,0.965c0.101,0.328,0.107,0.677,0.021,1.009c-0.205,0.621-0.455,1.227-0.748,1.813l-1.531,3.257
			c-0.237,0.572-0.541,1.115-0.9,1.619c-0.188,0.228-0.439,0.393-0.725,0.47c-0.289,0.068-0.594,0.068-0.887-0.002
			c-0.466-0.125-0.92-0.297-1.354-0.51l-3.071-1.422L353.569,112.812z M355.732,125.158l5.629-8.605l3.761,2.423l-1.129,1.724
			l-1.502-0.969l-1.068,1.631l1.406,0.9l-1.072,1.64l-1.403-0.902l-1.237,1.893l1.652,1.067l-1.125,1.722L355.732,125.158z
			 M363.074,130.256l2.159-2.649c0.244-0.248,0.432-0.549,0.542-0.878c0.019-0.155-0.118-0.351-0.405-0.58l-2.933,3.597
			l-2.089-1.686l6.506-7.977v0.002h-0.003l1.478,1.19c0.688,0.517,1.325,1.093,1.91,1.722c0.287,0.355,0.424,0.81,0.383,1.265
			c-0.115,0.659-0.423,1.271-0.885,1.752c-0.311,0.464-0.742,0.833-1.254,1.063c-0.441,0.063-0.889-0.067-1.23-0.354
			c0.273,0.302,0.448,0.679,0.502,1.082c0.015,0.233-0.028,0.465-0.117,0.682c-0.271,0.432-0.574,0.84-0.91,1.222l-1.715,2.104
			L363.074,130.256z M368.104,135.019l1.27-1.355l-0.656-0.701l-1.469,1.146l-1.896-2.021l8.487-6.005l2.65,2.82l-6.51,8.118
			L368.104,135.019z M374.585,144.198l-0.612-1.191l1.608-0.813c0.063,0.147,0.11,0.257,0.141,0.319
			c0.068,0.149,0.186,0.268,0.33,0.336c0.127,0.056,0.269,0.062,0.397,0.016c0.244-0.101,0.484-0.211,0.718-0.335l6.477-3.278
			l1.222,2.379v0.008l-6.155,3.114c-0.918,0.465-1.521,0.756-1.791,0.87c-0.268,0.113-0.559,0.146-0.846,0.1
			c-0.289-0.046-0.556-0.187-0.76-0.399C375.018,144.983,374.772,144.603,374.585,144.198z M377.314,150.484l1.69-0.785
			l-0.349-0.895l-1.794,0.515l-0.995-2.58l10.136-2.412l1.393,3.604l-9.098,5.104L377.314,150.484z M387.397,147.932h0.003v0.003
			L387.397,147.932z"/>
		<path fill="#2F358F" d="M380.683,148.978c1.043-0.545,2.343-1.185,3.901-1.923c-1.944,0.45-3.353,0.808-4.233,1.071
			L380.683,148.978z"/>
		<path fill="#2F358F" d="M373.551,129.134c-1.631,1.141-2.805,1.996-3.518,2.566l0.626,0.667c0.19-0.224,0.392-0.458,0.609-0.704
			C371.917,130.924,372.678,130.082,373.551,129.134z"/>
	</g>
</g>
<path fill="#E30513" d="M8.705-1.313c-33.206,29.145-36.5,79.69-7.354,112.897c29.145,33.207,79.692,36.498,112.898,7.354
	C79.382,149.54,27.49,147.43-1.656,114.223C-30.8,81.016-26.162,29.289,8.705-1.313"/>
</svg>
