<svg version="1.1" id="Layer_1" xmlns="http://www.w3.org/2000/svg" xmlns:xlink="http://www.w3.org/1999/xlink" x="0px" y="0px"
	 width="100%" viewBox="0 0 1080 1080" enable-background="new 0 0 1080 1080" xml:space="preserve">
<path fill="#131324" opacity="1.000000" stroke="none" 
	d="
M709.000000,1081.000000 
	C472.693878,1081.000000 236.887756,1081.000000 1.040821,1081.000000 
	C1.040821,721.068787 1.040821,361.137512 1.040821,1.103134 
	C360.889648,1.103134 720.779358,1.103134 1080.834473,1.103134 
	C1080.834473,360.999939 1080.834473,720.999939 1080.834473,1081.000000 
	C957.137024,1081.000000 833.318542,1081.000000 709.000000,1081.000000 
M606.500000,132.998978 
	C518.759277,132.998978 431.018524,132.998978 343.223694,132.998978 
	C343.223694,310.506653 343.223694,487.264832 343.223694,664.654968 
	C345.219604,664.654968 347.008087,664.654968 348.796570,664.654968 
	C477.779907,664.654968 606.763245,664.627258 735.746460,664.761169 
	C740.658142,664.766296 741.757629,663.294739 741.754456,658.583923 
	C741.636292,485.273041 741.654968,311.962128 741.654968,138.651184 
	C741.654968,136.875946 741.654968,135.100693 741.654968,132.998978 
	C696.459717,132.998978 651.979858,132.998978 606.500000,132.998978 
M423.500854,704.893311 
	C401.514435,704.893372 379.527985,704.892822 357.541565,704.894897 
	C356.209229,704.895020 354.525909,704.409119 353.620331,705.036438 
	C351.924133,706.211426 349.560791,708.039307 349.564392,709.590820 
	C349.567871,711.099243 352.012695,712.871155 353.732025,713.999268 
	C354.669556,714.614380 356.326202,714.145325 357.658508,714.145325 
	C482.914978,714.147095 608.171448,714.150940 733.427917,714.125916 
	C736.958252,714.125244 741.721497,715.112427 741.826965,709.712341 
	C741.939453,703.951477 737.018677,704.911560 733.311401,704.910767 
	C630.374573,704.889099 527.437744,704.893433 423.500854,704.893311 
M810.965088,819.399048 
	C810.965088,812.932861 810.965088,806.466675 810.965088,800.000549 
	C813.713806,807.136536 815.923340,814.258911 817.364502,821.533447 
	C818.420715,826.865295 821.129883,827.913513 826.070679,826.315063 
	C826.070679,812.066711 826.070679,797.712891 826.070679,783.311951 
	C823.843506,783.311951 821.962708,783.311951 819.513672,783.311951 
	C819.513672,789.247070 819.513672,794.803467 819.513672,800.359863 
	C819.060242,800.428162 818.606873,800.496399 818.153442,800.564697 
	C817.075134,796.331543 815.656738,792.149841 815.006775,787.851868 
	C814.239502,782.778809 811.046814,782.577209 807.122559,782.906311 
	C802.509399,783.293274 804.509033,786.797302 804.358826,788.996704 
	C804.064941,793.299500 804.272461,797.636597 804.272461,801.959473 
	C804.272461,810.066711 804.272522,818.174011 804.272522,826.561279 
	C806.730591,826.561279 808.600037,826.561279 810.965088,826.561279 
	C810.965088,824.279541 810.965088,822.321899 810.965088,819.399048 
M268.088623,809.553589 
	C269.117004,813.578125 270.198059,817.590027 271.161377,821.630066 
	C272.594513,827.640320 273.359589,828.053650 279.654114,826.000427 
	C279.654114,811.736206 279.654114,797.508057 279.654114,783.237549 
	C277.489349,783.237549 275.732361,783.237549 273.375885,783.237549 
	C273.375885,789.736389 273.375885,795.939819 273.375885,802.143311 
	C271.161591,798.011230 269.929291,793.775085 268.932373,789.484314 
	C267.211731,782.078613 265.920502,781.344177 258.418335,783.837341 
	C258.418335,798.088013 258.418335,812.309692 258.418335,826.487915 
	C260.703156,826.487915 262.594147,826.487915 265.012604,826.487915 
	C265.012604,817.812805 265.012604,809.528076 265.012604,801.243347 
	C265.259186,801.228516 265.505768,801.213623 265.752350,801.198792 
	C266.478973,803.716980 267.205597,806.235168 268.088623,809.553589 
M722.582092,782.919678 
	C718.962158,782.517090 719.126160,784.947327 719.132935,787.401733 
	C719.165771,799.213745 719.134033,811.025940 719.168213,822.837952 
	C719.171875,824.095398 719.455994,825.352051 719.588806,826.435791 
	C721.921387,826.435791 723.795471,826.435791 726.146606,826.435791 
	C726.146606,817.402771 726.146606,808.815186 726.146606,800.227600 
	C728.621704,807.260437 730.432129,814.317261 732.289490,821.361755 
	C733.963196,827.710327 734.191162,827.819885 740.845459,826.099243 
	C740.845459,811.893738 740.845459,797.664917 740.845459,783.183716 
	C738.769531,783.183716 737.015442,783.183716 734.513184,783.183716 
	C734.513184,789.058289 734.513184,794.714905 734.513184,800.371460 
	C734.014832,800.435303 733.516418,800.499084 733.018066,800.562866 
	C731.938354,796.315491 730.678772,792.103516 729.833740,787.809937 
	C729.106628,784.115356 727.434448,782.152893 722.582092,782.919678 
M491.895782,803.308594 
	C491.977081,802.598083 492.058350,801.887634 492.139648,801.177124 
	C494.574249,807.815918 496.414276,814.491333 498.079712,821.210022 
	C499.663361,827.598816 499.583099,827.618713 506.630951,826.251038 
	C506.630951,811.938049 506.630951,797.596252 506.630951,783.262695 
	C504.450500,783.262695 502.698090,783.262695 500.328064,783.262695 
	C500.328064,789.758362 500.328064,795.931824 500.328064,802.105347 
	C498.189972,798.105835 496.971466,794.027039 496.007172,789.889038 
	C494.167175,781.992676 494.011108,781.846313 485.444275,783.581299 
	C485.444275,797.895874 485.444275,812.241150 485.444275,826.458984 
	C487.755157,826.458984 489.645813,826.458984 491.891357,826.458984 
	C491.891357,818.734619 491.891357,811.434143 491.895782,803.308594 
M174.322189,790.612671 
	C174.322189,802.550903 174.322189,814.489136 174.322189,826.472656 
	C177.233170,826.472656 179.429596,826.472656 181.492081,826.472656 
	C183.054337,820.813416 180.160202,814.877808 184.335785,809.043030 
	C185.793564,813.698364 186.987717,817.434998 188.133148,821.186584 
	C190.135025,827.742981 190.181824,827.780518 197.417969,826.158081 
	C195.202652,818.677307 192.757294,811.274048 190.912476,803.724060 
	C190.271286,801.099976 190.526871,797.908142 191.418106,795.338074 
	C192.833206,791.257141 195.126236,787.480713 197.105087,783.459229 
	C192.075378,782.078430 189.101730,782.949097 187.581726,787.721741 
	C186.513855,791.074829 184.517487,794.132141 182.935730,797.321533 
	C182.592377,797.246643 182.249008,797.171814 181.905640,797.096924 
	C181.905640,792.558289 181.905640,788.019653 181.905640,783.326355 
	C179.162460,783.326355 176.976395,783.326355 174.322769,783.326355 
	C174.322769,785.705322 174.322769,787.677795 174.322189,790.612671 
M341.490997,788.720764 
	C341.560455,798.380615 341.375305,808.051331 341.787415,817.696533 
	C342.069702,824.303284 345.787445,827.430847 352.023682,827.399292 
	C358.201324,827.368042 361.938965,824.155212 362.262146,817.564636 
	C362.677795,809.087891 362.475220,800.580566 362.527832,792.086365 
	C362.545959,789.161865 362.530701,786.237061 362.530701,783.340088 
	C359.660583,783.340088 357.610077,783.340088 355.105194,783.340088 
	C355.105194,794.219849 355.251526,804.690002 354.962372,815.148071 
	C354.913696,816.909119 352.984192,818.618042 351.923676,820.351074 
	C350.905182,818.559753 349.111420,816.811768 349.008240,814.969238 
	C348.645538,808.491821 348.863464,801.981873 348.861969,795.484314 
	C348.861023,791.410461 348.861786,787.336609 348.861786,783.166809 
	C346.005524,783.166809 344.055084,783.166809 341.785980,783.166809 
	C341.678802,784.854248 341.585693,786.320190 341.490997,788.720764 
M548.866821,810.534729 
	C548.866821,807.761169 548.866821,804.987671 548.866821,802.072144 
	C545.034668,802.072144 541.846008,802.072144 536.751038,802.072144 
	C538.681152,805.118958 540.645142,806.903259 540.892517,808.900269 
	C541.326904,812.407410 541.592651,816.433899 540.241028,819.498291 
	C539.247559,821.750671 535.767151,820.298889 535.664429,817.768982 
	C535.314575,809.154541 535.436218,800.514587 535.666138,791.892029 
	C535.691345,790.946533 537.602722,789.304443 538.597595,789.335144 
	C539.659180,789.367920 541.110107,790.819153 541.597534,791.983398 
	C542.254883,793.553406 542.153992,795.440857 542.374878,797.163513 
	C544.645203,797.163513 546.555298,797.163513 548.572937,797.163513 
	C548.690918,795.997559 548.835449,795.185303 548.845764,794.371399 
	C548.948486,786.263855 545.425293,782.193237 538.353210,782.215881 
	C531.425232,782.238037 528.055664,785.989014 527.996521,793.924927 
	C527.939392,801.582947 527.882080,809.244019 528.031982,816.899658 
	C528.164856,823.686890 531.729309,827.268188 538.087708,827.414612 
	C544.621887,827.565125 548.477478,823.839417 548.818604,816.982300 
	C548.909485,815.154968 548.854553,813.320374 548.866821,810.534729 
M236.202164,821.259766 
	C236.445221,811.629456 236.907440,801.997925 236.855804,792.369202 
	C236.820221,785.733948 232.833405,782.194824 226.419449,782.223511 
	C219.722702,782.253479 216.038956,785.852661 215.919876,792.826782 
	C215.789108,800.485107 215.840698,808.147583 215.894135,815.807617 
	C215.935730,821.770203 218.303009,825.608521 222.550079,826.882446 
	C227.952698,828.502991 232.409256,826.883301 236.202164,821.259766 
M769.932312,782.951355 
	C768.975464,784.471008 767.474243,785.884766 767.154663,787.528320 
	C765.662292,795.203674 764.453735,802.935608 763.227783,810.660706 
	C762.403564,815.854431 761.719666,821.070435 760.939148,826.512207 
	C763.531494,826.512207 765.576416,826.512207 767.640991,826.512207 
	C767.979797,824.679810 767.875244,822.970154 768.620972,821.804321 
	C769.499023,820.431519 771.234619,818.528687 772.380066,818.666748 
	C773.963318,818.857727 776.554626,820.689758 776.605103,821.906433 
	C776.860046,828.050598 780.320068,827.332764 784.704285,826.287476 
	C782.715271,813.922729 780.498901,801.815552 778.930603,789.625061 
	C778.240906,784.264160 776.312195,781.781128 769.932312,782.951355 
M311.326904,789.182556 
	C312.598022,791.095337 313.869141,793.008118 315.290527,795.146973 
	C316.741669,795.146973 318.683563,795.146973 320.696350,795.146973 
	C321.502502,790.418457 320.731293,786.313293 316.807495,783.837646 
	C312.895142,781.369263 308.420349,781.409546 304.482452,783.961670 
	C300.481903,786.554443 299.459320,791.002808 300.787201,795.038574 
	C302.124603,799.103271 304.892487,802.741577 307.290802,806.397888 
	C308.994537,808.995422 311.742004,811.070129 312.834991,813.846130 
	C313.496185,815.525513 312.412781,819.556091 311.199554,819.992920 
	C307.753052,821.234070 307.443848,818.041870 307.118317,815.495605 
	C307.039154,814.876465 306.771851,814.281372 306.618286,813.766541 
	C300.274078,812.911926 299.428131,813.759216 300.617218,819.514893 
	C301.729095,824.897095 305.304993,827.610779 311.023773,827.412109 
	C316.535583,827.220703 320.234283,824.060730 320.962280,818.757751 
	C321.823822,812.482117 319.595001,807.409363 314.970825,803.143799 
	C312.671661,801.022949 310.394867,798.706238 308.778046,796.067566 
	C307.277832,793.619141 306.635376,790.615417 311.326904,789.182556 
M865.117310,807.580688 
	C861.714478,803.733521 858.078064,800.057861 855.051086,795.934753 
	C854.143921,794.698975 854.705200,792.165710 855.092896,790.332458 
	C855.209351,789.782104 857.714905,789.049744 857.924927,789.323242 
	C858.938171,790.642578 859.539246,792.277832 860.291626,793.798462 
	C860.502197,794.223999 860.730103,794.640991 860.961975,795.084717 
	C862.958740,795.084717 864.861938,795.084717 866.729858,795.084717 
	C867.473206,786.470337 864.301636,782.301514 857.250977,782.219543 
	C850.119385,782.136658 846.548462,786.418335 846.869751,794.344238 
	C847.119080,800.495178 851.405029,803.938660 855.072998,808.053284 
	C857.325684,810.580261 858.501526,814.154602 859.733398,817.419861 
	C859.944397,817.979126 858.078918,820.030029 857.037354,820.142883 
	C856.102783,820.244141 854.642944,818.813965 854.035095,817.715881 
	C853.376221,816.525635 853.434753,814.938293 853.030945,812.692932 
	C850.656128,814.399841 846.658813,811.020447 846.506836,816.360962 
	C846.321472,822.874084 849.979126,827.043152 856.155090,827.376099 
	C862.855896,827.737366 866.970825,824.246826 867.103455,817.419678 
	C867.162781,814.364441 866.071594,811.286804 865.117310,807.580688 
M895.547852,812.563354 
	C894.056519,804.240540 901.391663,808.429077 904.379272,806.516907 
	C905.239990,802.910583 905.407837,799.828857 900.380432,800.470032 
	C895.616882,801.077515 895.540771,798.283264 895.457214,794.737854 
	C895.368713,790.984985 896.334961,789.065979 900.449646,789.562744 
	C902.507996,789.811340 904.621094,789.606079 906.828369,789.606079 
	C906.828369,787.054932 906.828369,785.302551 906.828369,783.309326 
	C900.515137,783.309326 894.497314,783.309326 888.334167,783.309326 
	C888.334167,797.900818 888.334167,812.102905 888.334167,826.508545 
	C894.671326,826.508545 900.701416,826.508545 906.720703,826.508545 
	C906.720703,824.231934 906.720703,822.341309 906.720703,820.251282 
	C902.917480,820.083679 899.499756,819.933044 895.546875,819.758850 
	C895.546875,817.427673 895.546875,815.475098 895.547852,812.563354 
M652.277527,825.920715 
	C654.540466,826.279114 656.803345,826.637451 659.765625,827.106567 
	C659.765625,820.182617 659.765625,814.273560 659.765625,808.201294 
	C662.770691,807.955627 665.195068,807.757446 667.821655,807.542725 
	C667.821655,805.344604 667.821655,803.462402 667.821655,801.375549 
	C665.070862,801.135071 662.649536,800.923340 660.326904,800.720276 
	C658.289612,791.120789 658.677917,790.459290 667.671082,789.623596 
	C672.762451,789.150513 670.394836,785.944336 670.562622,783.289734 
	C664.281860,783.289734 658.399414,783.289734 652.081970,783.289734 
	C652.081970,797.448059 652.081970,811.241028 652.277527,825.920715 
M390.943695,792.547241 
	C390.943695,789.455383 390.943695,786.363525 390.943695,783.332642 
	C388.115845,783.332642 386.056915,783.332642 383.838562,783.332642 
	C383.838562,797.953552 383.838562,812.169617 383.838562,826.614380 
	C389.942169,826.614380 395.678802,826.614380 401.564606,826.614380 
	C401.564606,824.320190 401.564606,822.322937 401.564606,819.847046 
	C397.866364,819.847046 394.618469,819.847046 390.943634,819.847046 
	C390.943634,810.755188 390.943634,802.143860 390.943695,792.547241 
M421.871826,802.513916 
	C421.871826,810.457642 421.871826,818.401428 421.871826,826.489746 
	C424.592102,826.489746 426.625092,826.489746 429.242859,826.489746 
	C429.242859,814.053162 429.242859,801.993896 429.242859,789.938843 
	C431.779236,789.654785 433.732513,789.436035 435.761292,789.208862 
	C435.761292,787.089233 435.761292,785.216919 435.761292,783.339355 
	C428.618866,783.339355 421.892487,783.339355 415.127136,783.339355 
	C415.127136,785.517822 415.127136,787.276672 415.127136,789.179016 
	C417.350403,789.472290 419.291595,789.728333 421.871674,790.068604 
	C421.871674,793.939209 421.871674,797.730469 421.871826,802.513916 
M603.916809,798.504028 
	C603.916809,793.416687 603.916809,788.329407 603.916809,783.215088 
	C600.996643,783.215088 598.906494,783.215088 596.622559,783.215088 
	C596.622559,797.876648 596.622559,812.217041 596.622559,826.610229 
	C599.148621,826.610229 601.239258,826.610229 603.916748,826.610229 
	C603.916748,817.378418 603.916748,808.440308 603.916809,798.504028 
M690.029297,819.401978 
	C690.029297,821.808228 690.029297,824.214539 690.029297,826.580566 
	C693.013489,826.580566 695.099609,826.580566 697.262085,826.580566 
	C697.262085,811.910583 697.262085,797.581360 697.262085,783.252930 
	C694.701538,783.252930 692.625610,783.252930 690.029358,783.252930 
	C690.029358,795.210388 690.029358,806.820007 690.029297,819.401978 
M463.228912,792.537109 
	C463.228912,789.455200 463.228912,786.373230 463.228912,783.229004 
	C460.452545,783.229004 458.533020,783.229004 456.429657,783.229004 
	C456.429657,797.864746 456.429657,812.202698 456.429657,826.582275 
	C458.764801,826.582275 460.687469,826.582275 463.229218,826.582275 
	C463.229218,815.373474 463.229218,804.449463 463.228912,792.537109 
z"/>
<path fill="#0101FD" opacity="1.000000" stroke="none" 
	d="
M607.000000,132.998978 
	C651.979858,132.998978 696.459717,132.998978 741.654968,132.998978 
	C741.654968,135.100693 741.654968,136.875946 741.654968,138.651184 
	C741.654968,311.962128 741.636292,485.273041 741.754456,658.583923 
	C741.757629,663.294739 740.658142,664.766296 735.746460,664.761169 
	C606.763245,664.627258 477.779907,664.654968 348.796570,664.654968 
	C347.008087,664.654968 345.219604,664.654968 343.223694,664.654968 
	C343.223694,487.264832 343.223694,310.506653 343.223694,132.998978 
	C431.018524,132.998978 518.759277,132.998978 607.000000,132.998978 
M516.915771,476.277893 
	C523.367737,476.277893 529.819763,476.277893 536.411499,476.277893 
	C536.411499,471.578857 536.411499,467.206940 536.411499,462.551636 
	C525.020142,462.500153 518.324036,455.498291 513.217896,447.028870 
	C501.355957,427.353668 489.970947,407.390869 478.412720,387.532928 
	C478.271210,387.289825 478.395050,386.892303 478.395050,387.048981 
	C484.441956,383.073273 490.660675,379.731110 496.006683,375.329071 
	C511.720886,362.389557 516.127869,345.170319 512.592712,325.838684 
	C509.224213,307.418304 496.856232,296.507904 479.457275,292.349274 
	C466.783844,289.320099 453.518372,287.858429 440.468018,287.506226 
	C413.829468,286.787323 387.158051,287.283234 360.500153,287.298279 
	C359.059570,287.299103 357.619110,287.479309 355.765625,287.603729 
	C355.765625,290.055939 355.765625,292.190857 355.765625,294.325745 
	C355.765625,296.581787 355.765625,298.837860 355.765625,301.349579 
	C358.793243,301.349579 361.113708,301.347260 363.434204,301.349976 
	C376.899994,301.365753 380.201172,304.626556 380.262573,318.242950 
	C380.326447,332.404694 380.281647,346.566895 380.280518,360.728912 
	C380.278198,389.386139 380.325623,418.043518 380.245209,446.700531 
	C380.210083,459.219543 376.912567,462.391876 364.498932,462.435516 
	C361.729279,462.445251 358.959595,462.436920 356.147217,462.436920 
	C356.147217,467.503601 356.147217,471.885712 356.147217,476.240936 
	C386.623962,476.240936 416.718079,476.240936 446.745850,476.240936 
	C446.745850,471.537598 446.745850,467.145447 446.745850,462.430176 
	C442.889099,462.430176 439.409393,462.502380 435.933624,462.416229 
	C426.530121,462.183197 422.560059,458.871002 422.385803,449.507965 
	C422.051178,431.529327 422.328644,413.539276 422.379669,395.554016 
	C422.380432,395.292938 422.736969,395.032837 423.223846,394.366882 
	C427.068665,394.366882 431.231537,394.617249 435.348236,394.288849 
	C438.734100,394.018768 440.382935,395.433105 441.895844,398.275116 
	C451.518951,416.351929 461.521698,434.229004 470.981506,452.389587 
	C478.161530,466.173584 489.380127,473.457062 504.549225,475.167877 
	C508.354492,475.597107 512.175293,475.888184 516.915771,476.277893 
M704.072876,301.461273 
	C697.961853,295.185181 690.425476,291.284424 682.079224,289.191833 
	C657.201904,282.954590 632.138428,282.444763 607.469421,289.620941 
	C578.718506,297.984528 559.358276,316.801727 550.296692,345.493408 
	C543.094543,368.297516 543.020935,391.485596 548.987976,414.542175 
	C557.313599,446.712982 577.604370,467.555328 610.007996,475.386627 
	C641.253113,482.937927 671.850342,479.624146 701.644043,467.642548 
	C706.145508,465.832245 707.962036,463.747833 707.846069,458.652252 
	C707.520325,444.331970 707.604248,429.985107 708.108337,415.669250 
	C708.443298,406.154724 712.795654,402.311462 722.225037,401.596680 
	C723.669556,401.487213 725.110596,401.332611 726.479248,401.205750 
	C726.479248,396.501678 726.479248,392.242737 726.479248,387.793915 
	C698.766418,387.793915 671.375671,387.793915 643.873169,387.793915 
	C643.873169,392.510437 643.873169,396.873260 643.873169,401.252747 
	C644.941772,401.385529 645.595154,401.507507 646.253113,401.542511 
	C661.372986,402.346527 665.732361,406.836639 665.805115,421.855133 
	C665.859192,433.021301 665.694885,444.190125 665.895203,455.352997 
	C665.953125,458.580444 664.842407,460.005188 661.756836,460.116913 
	C654.442810,460.381836 647.092163,461.246338 639.821594,460.801666 
	C617.674561,459.447113 602.602661,448.295105 595.969666,426.885590 
	C586.958374,397.799408 586.874512,368.320465 594.950256,339.174194 
	C602.541504,311.776337 620.117432,299.843689 646.920288,301.870880 
	C661.298218,302.958344 670.354675,310.339050 674.020081,324.332153 
	C675.146973,328.634094 675.590820,333.114960 676.405579,337.851532 
	C684.164185,337.962036 691.676270,336.988037 698.543945,333.119171 
	C711.126465,326.030975 713.523987,313.391602 704.072876,301.461273 
z"/>
<path fill="#F3F3F4" opacity="1.000000" stroke="none" 
	d="
M424.000885,704.893311 
	C527.437744,704.893433 630.374573,704.889099 733.311401,704.910767 
	C737.018677,704.911560 741.939453,703.951477 741.826965,709.712341 
	C741.721497,715.112427 736.958252,714.125244 733.427917,714.125916 
	C608.171448,714.150940 482.914978,714.147095 357.658508,714.145325 
	C356.326202,714.145325 354.669556,714.614380 353.732025,713.999268 
	C352.012695,712.871155 349.567871,711.099243 349.564392,709.590820 
	C349.560791,708.039307 351.924133,706.211426 353.620331,705.036438 
	C354.525909,704.409119 356.209229,704.895020 357.541565,704.894897 
	C379.527985,704.892822 401.514435,704.893372 424.000885,704.893311 
z"/>
<path fill="#0434E1" opacity="1.000000" stroke="none" 
	d="
M810.965088,819.881653 
	C810.965088,822.321899 810.965088,824.279541 810.965088,826.561279 
	C808.600037,826.561279 806.730591,826.561279 804.272522,826.561279 
	C804.272522,818.174011 804.272461,810.066711 804.272461,801.959473 
	C804.272461,797.636597 804.064941,793.299500 804.358826,788.996704 
	C804.509033,786.797302 802.509399,783.293274 807.122559,782.906311 
	C811.046814,782.577209 814.239502,782.778809 815.006775,787.851868 
	C815.656738,792.149841 817.075134,796.331543 818.153442,800.564697 
	C818.606873,800.496399 819.060242,800.428162 819.513672,800.359863 
	C819.513672,794.803467 819.513672,789.247070 819.513672,783.311951 
	C821.962708,783.311951 823.843506,783.311951 826.070679,783.311951 
	C826.070679,797.712891 826.070679,812.066711 826.070679,826.315063 
	C821.129883,827.913513 818.420715,826.865295 817.364502,821.533447 
	C815.923340,814.258911 813.713806,807.136536 810.965088,800.000549 
	C810.965088,806.466675 810.965088,812.932861 810.965088,819.881653 
z"/>
<path fill="#0435E2" opacity="1.000000" stroke="none" 
	d="
M268.010437,809.153442 
	C267.205597,806.235168 266.478973,803.716980 265.752350,801.198792 
	C265.505768,801.213623 265.259186,801.228516 265.012604,801.243347 
	C265.012604,809.528076 265.012604,817.812805 265.012604,826.487915 
	C262.594147,826.487915 260.703156,826.487915 258.418335,826.487915 
	C258.418335,812.309692 258.418335,798.088013 258.418335,783.837341 
	C265.920502,781.344177 267.211731,782.078613 268.932373,789.484314 
	C269.929291,793.775085 271.161591,798.011230 273.375885,802.143311 
	C273.375885,795.939819 273.375885,789.736389 273.375885,783.237549 
	C275.732361,783.237549 277.489349,783.237549 279.654114,783.237549 
	C279.654114,797.508057 279.654114,811.736206 279.654114,826.000427 
	C273.359589,828.053650 272.594513,827.640320 271.161377,821.630066 
	C270.198059,817.590027 269.117004,813.578125 268.010437,809.153442 
z"/>
<path fill="#0435E2" opacity="1.000000" stroke="none" 
	d="
M723.024536,782.918091 
	C727.434448,782.152893 729.106628,784.115356 729.833740,787.809937 
	C730.678772,792.103516 731.938354,796.315491 733.018066,800.562866 
	C733.516418,800.499084 734.014832,800.435303 734.513184,800.371460 
	C734.513184,794.714905 734.513184,789.058289 734.513184,783.183716 
	C737.015442,783.183716 738.769531,783.183716 740.845459,783.183716 
	C740.845459,797.664917 740.845459,811.893738 740.845459,826.099243 
	C734.191162,827.819885 733.963196,827.710327 732.289490,821.361755 
	C730.432129,814.317261 728.621704,807.260437 726.146606,800.227600 
	C726.146606,808.815186 726.146606,817.402771 726.146606,826.435791 
	C723.795471,826.435791 721.921387,826.435791 719.588806,826.435791 
	C719.455994,825.352051 719.171875,824.095398 719.168213,822.837952 
	C719.134033,811.025940 719.165771,799.213745 719.132935,787.401733 
	C719.126160,784.947327 718.962158,782.517090 723.024536,782.918091 
z"/>
<path fill="#0435E2" opacity="1.000000" stroke="none" 
	d="
M491.893555,803.721130 
	C491.891357,811.434143 491.891357,818.734619 491.891357,826.458984 
	C489.645813,826.458984 487.755157,826.458984 485.444275,826.458984 
	C485.444275,812.241150 485.444275,797.895874 485.444275,783.581299 
	C494.011108,781.846313 494.167175,781.992676 496.007172,789.889038 
	C496.971466,794.027039 498.189972,798.105835 500.328064,802.105347 
	C500.328064,795.931824 500.328064,789.758362 500.328064,783.262695 
	C502.698090,783.262695 504.450500,783.262695 506.630951,783.262695 
	C506.630951,797.596252 506.630951,811.938049 506.630951,826.251038 
	C499.583099,827.618713 499.663361,827.598816 498.079712,821.210022 
	C496.414276,814.491333 494.574249,807.815918 492.139648,801.177124 
	C492.058350,801.887634 491.977081,802.598083 491.893555,803.721130 
z"/>
<path fill="#0434DD" opacity="1.000000" stroke="none" 
	d="
M174.322479,790.131470 
	C174.322769,787.677795 174.322769,785.705322 174.322769,783.326355 
	C176.976395,783.326355 179.162460,783.326355 181.905640,783.326355 
	C181.905640,788.019653 181.905640,792.558289 181.905640,797.096924 
	C182.249008,797.171814 182.592377,797.246643 182.935730,797.321533 
	C184.517487,794.132141 186.513855,791.074829 187.581726,787.721741 
	C189.101730,782.949097 192.075378,782.078430 197.105087,783.459229 
	C195.126236,787.480713 192.833206,791.257141 191.418106,795.338074 
	C190.526871,797.908142 190.271286,801.099976 190.912476,803.724060 
	C192.757294,811.274048 195.202652,818.677307 197.417969,826.158081 
	C190.181824,827.780518 190.135025,827.742981 188.133148,821.186584 
	C186.987717,817.434998 185.793564,813.698364 184.335785,809.043030 
	C180.160202,814.877808 183.054337,820.813416 181.492081,826.472656 
	C179.429596,826.472656 177.233170,826.472656 174.322189,826.472656 
	C174.322189,814.489136 174.322189,802.550903 174.322479,790.131470 
z"/>
<path fill="#0435E2" opacity="1.000000" stroke="none" 
	d="
M341.491791,788.253418 
	C341.585693,786.320190 341.678802,784.854248 341.785980,783.166809 
	C344.055084,783.166809 346.005524,783.166809 348.861786,783.166809 
	C348.861786,787.336609 348.861023,791.410461 348.861969,795.484314 
	C348.863464,801.981873 348.645538,808.491821 349.008240,814.969238 
	C349.111420,816.811768 350.905182,818.559753 351.923676,820.351074 
	C352.984192,818.618042 354.913696,816.909119 354.962372,815.148071 
	C355.251526,804.690002 355.105194,794.219849 355.105194,783.340088 
	C357.610077,783.340088 359.660583,783.340088 362.530701,783.340088 
	C362.530701,786.237061 362.545959,789.161865 362.527832,792.086365 
	C362.475220,800.580566 362.677795,809.087891 362.262146,817.564636 
	C361.938965,824.155212 358.201324,827.368042 352.023682,827.399292 
	C345.787445,827.430847 342.069702,824.303284 341.787415,817.696533 
	C341.375305,808.051331 341.560455,798.380615 341.491791,788.253418 
z"/>
<path fill="#0435E2" opacity="1.000000" stroke="none" 
	d="
M548.866699,811.011902 
	C548.854553,813.320374 548.909485,815.154968 548.818604,816.982300 
	C548.477478,823.839417 544.621887,827.565125 538.087708,827.414612 
	C531.729309,827.268188 528.164856,823.686890 528.031982,816.899658 
	C527.882080,809.244019 527.939392,801.582947 527.996521,793.924927 
	C528.055664,785.989014 531.425232,782.238037 538.353210,782.215881 
	C545.425293,782.193237 548.948486,786.263855 548.845764,794.371399 
	C548.835449,795.185303 548.690918,795.997559 548.572937,797.163513 
	C546.555298,797.163513 544.645203,797.163513 542.374878,797.163513 
	C542.153992,795.440857 542.254883,793.553406 541.597534,791.983398 
	C541.110107,790.819153 539.659180,789.367920 538.597595,789.335144 
	C537.602722,789.304443 535.691345,790.946533 535.666138,791.892029 
	C535.436218,800.514587 535.314575,809.154541 535.664429,817.768982 
	C535.767151,820.298889 539.247559,821.750671 540.241028,819.498291 
	C541.592651,816.433899 541.326904,812.407410 540.892517,808.900269 
	C540.645142,806.903259 538.681152,805.118958 536.751038,802.072144 
	C541.846008,802.072144 545.034668,802.072144 548.866821,802.072144 
	C548.866821,804.987671 548.866821,807.761169 548.866699,811.011902 
z"/>
<path fill="#0435E4" opacity="1.000000" stroke="none" 
	d="
M236.066620,821.639526 
	C232.409256,826.883301 227.952698,828.502991 222.550079,826.882446 
	C218.303009,825.608521 215.935730,821.770203 215.894135,815.807617 
	C215.840698,808.147583 215.789108,800.485107 215.919876,792.826782 
	C216.038956,785.852661 219.722702,782.253479 226.419449,782.223511 
	C232.833405,782.194824 236.820221,785.733948 236.855804,792.369202 
	C236.907440,801.997925 236.445221,811.629456 236.066620,821.639526 
M229.902420,802.529663 
	C229.899506,799.709167 230.336945,796.791077 229.740936,794.102051 
	C229.334778,792.269531 227.483612,790.757202 226.278549,789.101746 
	C225.208496,790.718201 223.291809,792.295410 223.214630,793.957947 
	C222.876465,801.242249 222.872375,808.560913 223.223694,815.844055 
	C223.303207,817.492615 225.289261,819.049133 226.397690,820.648010 
	C227.557770,819.084534 229.516479,817.617676 229.719543,815.938538 
	C230.214035,811.849670 229.894180,807.662292 229.902420,802.529663 
z"/>
<path fill="#0435E2" opacity="1.000000" stroke="none" 
	d="
M770.369385,782.937256 
	C776.312195,781.781128 778.240906,784.264160 778.930603,789.625061 
	C780.498901,801.815552 782.715271,813.922729 784.704285,826.287476 
	C780.320068,827.332764 776.860046,828.050598 776.605103,821.906433 
	C776.554626,820.689758 773.963318,818.857727 772.380066,818.666748 
	C771.234619,818.528687 769.499023,820.431519 768.620972,821.804321 
	C767.875244,822.970154 767.979797,824.679810 767.640991,826.512207 
	C765.576416,826.512207 763.531494,826.512207 760.939148,826.512207 
	C761.719666,821.070435 762.403564,815.854431 763.227783,810.660706 
	C764.453735,802.935608 765.662292,795.203674 767.154663,787.528320 
	C767.474243,785.884766 768.975464,784.471008 770.369385,782.937256 
M770.184204,807.707153 
	C769.323486,811.777771 770.951294,812.801880 775.255066,811.244568 
	C774.451477,805.679504 773.648743,800.120667 772.846008,794.561890 
	C772.606018,794.584656 772.366089,794.607483 772.126099,794.630249 
	C771.536011,798.701233 770.945862,802.772156 770.184204,807.707153 
z"/>
<path fill="#0435E2" opacity="1.000000" stroke="none" 
	d="
M310.930786,789.177856 
	C306.635376,790.615417 307.277832,793.619141 308.778046,796.067566 
	C310.394867,798.706238 312.671661,801.022949 314.970825,803.143799 
	C319.595001,807.409363 321.823822,812.482117 320.962280,818.757751 
	C320.234283,824.060730 316.535583,827.220703 311.023773,827.412109 
	C305.304993,827.610779 301.729095,824.897095 300.617218,819.514893 
	C299.428131,813.759216 300.274078,812.911926 306.618286,813.766541 
	C306.771851,814.281372 307.039154,814.876465 307.118317,815.495605 
	C307.443848,818.041870 307.753052,821.234070 311.199554,819.992920 
	C312.412781,819.556091 313.496185,815.525513 312.834991,813.846130 
	C311.742004,811.070129 308.994537,808.995422 307.290802,806.397888 
	C304.892487,802.741577 302.124603,799.103271 300.787201,795.038574 
	C299.459320,791.002808 300.481903,786.554443 304.482452,783.961670 
	C308.420349,781.409546 312.895142,781.369263 316.807495,783.837646 
	C320.731293,786.313293 321.502502,790.418457 320.696350,795.146973 
	C318.683563,795.146973 316.741669,795.146973 315.290527,795.146973 
	C313.869141,793.008118 312.598022,791.095337 310.930786,789.177856 
z"/>
<path fill="#0434E1" opacity="1.000000" stroke="none" 
	d="
M865.309937,807.900024 
	C866.071594,811.286804 867.162781,814.364441 867.103455,817.419678 
	C866.970825,824.246826 862.855896,827.737366 856.155090,827.376099 
	C849.979126,827.043152 846.321472,822.874084 846.506836,816.360962 
	C846.658813,811.020447 850.656128,814.399841 853.030945,812.692932 
	C853.434753,814.938293 853.376221,816.525635 854.035095,817.715881 
	C854.642944,818.813965 856.102783,820.244141 857.037354,820.142883 
	C858.078918,820.030029 859.944397,817.979126 859.733398,817.419861 
	C858.501526,814.154602 857.325684,810.580261 855.072998,808.053284 
	C851.405029,803.938660 847.119080,800.495178 846.869751,794.344238 
	C846.548462,786.418335 850.119385,782.136658 857.250977,782.219543 
	C864.301636,782.301514 867.473206,786.470337 866.729858,795.084717 
	C864.861938,795.084717 862.958740,795.084717 860.961975,795.084717 
	C860.730103,794.640991 860.502197,794.223999 860.291626,793.798462 
	C859.539246,792.277832 858.938171,790.642578 857.924927,789.323242 
	C857.714905,789.049744 855.209351,789.782104 855.092896,790.332458 
	C854.705200,792.165710 854.143921,794.698975 855.051086,795.934753 
	C858.078064,800.057861 861.714478,803.733521 865.309937,807.900024 
z"/>
<path fill="#0435E4" opacity="1.000000" stroke="none" 
	d="
M895.547363,813.042969 
	C895.546875,815.475098 895.546875,817.427673 895.546875,819.758850 
	C899.499756,819.933044 902.917480,820.083679 906.720703,820.251282 
	C906.720703,822.341309 906.720703,824.231934 906.720703,826.508545 
	C900.701416,826.508545 894.671326,826.508545 888.334167,826.508545 
	C888.334167,812.102905 888.334167,797.900818 888.334167,783.309326 
	C894.497314,783.309326 900.515137,783.309326 906.828369,783.309326 
	C906.828369,785.302551 906.828369,787.054932 906.828369,789.606079 
	C904.621094,789.606079 902.507996,789.811340 900.449646,789.562744 
	C896.334961,789.065979 895.368713,790.984985 895.457214,794.737854 
	C895.540771,798.283264 895.616882,801.077515 900.380432,800.470032 
	C905.407837,799.828857 905.239990,802.910583 904.379272,806.516907 
	C901.391663,808.429077 894.056519,804.240540 895.547363,813.042969 
z"/>
<path fill="#0435E3" opacity="1.000000" stroke="none" 
	d="
M652.179749,825.477356 
	C652.081970,811.241028 652.081970,797.448059 652.081970,783.289734 
	C658.399414,783.289734 664.281860,783.289734 670.562622,783.289734 
	C670.394836,785.944336 672.762451,789.150513 667.671082,789.623596 
	C658.677917,790.459290 658.289612,791.120789 660.326904,800.720276 
	C662.649536,800.923340 665.070862,801.135071 667.821655,801.375549 
	C667.821655,803.462402 667.821655,805.344604 667.821655,807.542725 
	C665.195068,807.757446 662.770691,807.955627 659.765625,808.201294 
	C659.765625,814.273560 659.765625,820.182617 659.765625,827.106567 
	C656.803345,826.637451 654.540466,826.279114 652.179749,825.477356 
z"/>
<path fill="#0435E4" opacity="1.000000" stroke="none" 
	d="
M390.943665,793.039856 
	C390.943634,802.143860 390.943634,810.755188 390.943634,819.847046 
	C394.618469,819.847046 397.866364,819.847046 401.564606,819.847046 
	C401.564606,822.322937 401.564606,824.320190 401.564606,826.614380 
	C395.678802,826.614380 389.942169,826.614380 383.838562,826.614380 
	C383.838562,812.169617 383.838562,797.953552 383.838562,783.332642 
	C386.056915,783.332642 388.115845,783.332642 390.943695,783.332642 
	C390.943695,786.363525 390.943695,789.455383 390.943665,793.039856 
z"/>
<path fill="#0335E6" opacity="1.000000" stroke="none" 
	d="
M421.871765,802.017822 
	C421.871674,797.730469 421.871674,793.939209 421.871674,790.068604 
	C419.291595,789.728333 417.350403,789.472290 415.127136,789.179016 
	C415.127136,787.276672 415.127136,785.517822 415.127136,783.339355 
	C421.892487,783.339355 428.618866,783.339355 435.761292,783.339355 
	C435.761292,785.216919 435.761292,787.089233 435.761292,789.208862 
	C433.732513,789.436035 431.779236,789.654785 429.242859,789.938843 
	C429.242859,801.993896 429.242859,814.053162 429.242859,826.489746 
	C426.625092,826.489746 424.592102,826.489746 421.871826,826.489746 
	C421.871826,818.401428 421.871826,810.457642 421.871765,802.017822 
z"/>
<path fill="#0433DA" opacity="1.000000" stroke="none" 
	d="
M603.916748,799.003113 
	C603.916748,808.440308 603.916748,817.378418 603.916748,826.610229 
	C601.239258,826.610229 599.148621,826.610229 596.622559,826.610229 
	C596.622559,812.217041 596.622559,797.876648 596.622559,783.215088 
	C598.906494,783.215088 600.996643,783.215088 603.916809,783.215088 
	C603.916809,788.329407 603.916809,793.416687 603.916748,799.003113 
z"/>
<path fill="#0433DA" opacity="1.000000" stroke="none" 
	d="
M690.029297,818.915771 
	C690.029358,806.820007 690.029358,795.210388 690.029358,783.252930 
	C692.625610,783.252930 694.701538,783.252930 697.262085,783.252930 
	C697.262085,797.581360 697.262085,811.910583 697.262085,826.580566 
	C695.099609,826.580566 693.013489,826.580566 690.029297,826.580566 
	C690.029297,824.214539 690.029297,821.808228 690.029297,818.915771 
z"/>
<path fill="#0435E5" opacity="1.000000" stroke="none" 
	d="
M463.229065,793.031250 
	C463.229218,804.449463 463.229218,815.373474 463.229218,826.582275 
	C460.687469,826.582275 458.764801,826.582275 456.429657,826.582275 
	C456.429657,812.202698 456.429657,797.864746 456.429657,783.229004 
	C458.533020,783.229004 460.452545,783.229004 463.228912,783.229004 
	C463.228912,786.373230 463.228912,789.455200 463.229065,793.031250 
z"/>
<path fill="#F8F8FC" opacity="1.000000" stroke="none" 
	d="
M516.452393,476.260315 
	C512.175293,475.888184 508.354492,475.597107 504.549225,475.167877 
	C489.380127,473.457062 478.161530,466.173584 470.981506,452.389587 
	C461.521698,434.229004 451.518951,416.351929 441.895844,398.275116 
	C440.382935,395.433105 438.734100,394.018768 435.348236,394.288849 
	C431.231537,394.617249 427.068665,394.366882 423.223846,394.366882 
	C422.736969,395.032837 422.380432,395.292938 422.379669,395.554016 
	C422.328644,413.539276 422.051178,431.529327 422.385803,449.507965 
	C422.560059,458.871002 426.530121,462.183197 435.933624,462.416229 
	C439.409393,462.502380 442.889099,462.430176 446.745850,462.430176 
	C446.745850,467.145447 446.745850,471.537598 446.745850,476.240936 
	C416.718079,476.240936 386.623962,476.240936 356.147217,476.240936 
	C356.147217,471.885712 356.147217,467.503601 356.147217,462.436920 
	C358.959595,462.436920 361.729279,462.445251 364.498932,462.435516 
	C376.912567,462.391876 380.210083,459.219543 380.245209,446.700531 
	C380.325623,418.043518 380.278198,389.386139 380.280518,360.728912 
	C380.281647,346.566895 380.326447,332.404694 380.262573,318.242950 
	C380.201172,304.626556 376.899994,301.365753 363.434204,301.349976 
	C361.113708,301.347260 358.793243,301.349579 355.765625,301.349579 
	C355.765625,298.837860 355.765625,296.581787 355.765625,294.325745 
	C355.765625,292.190857 355.765625,290.055939 355.765625,287.603729 
	C357.619110,287.479309 359.059570,287.299103 360.500153,287.298279 
	C387.158051,287.283234 413.829468,286.787323 440.468018,287.506226 
	C453.518372,287.858429 466.783844,289.320099 479.457275,292.349274 
	C496.856232,296.507904 509.224213,307.418304 512.592712,325.838684 
	C516.127869,345.170319 511.720886,362.389557 496.006683,375.329071 
	C490.660675,379.731110 484.441956,383.073273 478.395050,387.048981 
	C478.395050,386.892303 478.271210,387.289825 478.412720,387.532928 
	C489.970947,407.390869 501.355957,427.353668 513.217896,447.028870 
	C518.324036,455.498291 525.020142,462.500153 536.411499,462.551636 
	C536.411499,467.206940 536.411499,471.578857 536.411499,476.277893 
	C529.819763,476.277893 523.367737,476.277893 516.452393,476.260315 
M445.540131,378.349060 
	C456.936676,376.859100 463.928375,370.319061 466.774414,359.377747 
	C469.973877,347.077850 470.103271,334.668793 467.057892,322.312622 
	C465.449646,315.787415 462.229675,310.227600 455.998566,307.015900 
	C445.250122,301.475708 433.792206,303.186157 422.503296,303.206146 
	C422.503296,328.808441 422.503296,353.713165 422.503296,378.472321 
	C430.114288,378.472321 437.396271,378.472321 445.540131,378.349060 
z"/>
<path fill="#F8F8FC" opacity="1.000000" stroke="none" 
	d="
M704.314941,301.723450 
	C713.523987,313.391602 711.126465,326.030975 698.543945,333.119171 
	C691.676270,336.988037 684.164185,337.962036 676.405579,337.851532 
	C675.590820,333.114960 675.146973,328.634094 674.020081,324.332153 
	C670.354675,310.339050 661.298218,302.958344 646.920288,301.870880 
	C620.117432,299.843689 602.541504,311.776337 594.950256,339.174194 
	C586.874512,368.320465 586.958374,397.799408 595.969666,426.885590 
	C602.602661,448.295105 617.674561,459.447113 639.821594,460.801666 
	C647.092163,461.246338 654.442810,460.381836 661.756836,460.116913 
	C664.842407,460.005188 665.953125,458.580444 665.895203,455.352997 
	C665.694885,444.190125 665.859192,433.021301 665.805115,421.855133 
	C665.732361,406.836639 661.372986,402.346527 646.253113,401.542511 
	C645.595154,401.507507 644.941772,401.385529 643.873169,401.252747 
	C643.873169,396.873260 643.873169,392.510437 643.873169,387.793915 
	C671.375671,387.793915 698.766418,387.793915 726.479248,387.793915 
	C726.479248,392.242737 726.479248,396.501678 726.479248,401.205750 
	C725.110596,401.332611 723.669556,401.487213 722.225037,401.596680 
	C712.795654,402.311462 708.443298,406.154724 708.108337,415.669250 
	C707.604248,429.985107 707.520325,444.331970 707.846069,458.652252 
	C707.962036,463.747833 706.145508,465.832245 701.644043,467.642548 
	C671.850342,479.624146 641.253113,482.937927 610.007996,475.386627 
	C577.604370,467.555328 557.313599,446.712982 548.987976,414.542175 
	C543.020935,391.485596 543.094543,368.297516 550.296692,345.493408 
	C559.358276,316.801727 578.718506,297.984528 607.469421,289.620941 
	C632.138428,282.444763 657.201904,282.954590 682.079224,289.191833 
	C690.425476,291.284424 697.961853,295.185181 704.314941,301.723450 
z"/>
<path fill="#12152F" opacity="1.000000" stroke="none" 
	d="
M229.902359,803.022095 
	C229.894180,807.662292 230.214035,811.849670 229.719543,815.938538 
	C229.516479,817.617676 227.557770,819.084534 226.397705,820.648010 
	C225.289261,819.049133 223.303207,817.492615 223.223694,815.844055 
	C222.872375,808.560913 222.876465,801.242249 223.214630,793.957947 
	C223.291809,792.295410 225.208496,790.718201 226.278564,789.101746 
	C227.483612,790.757202 229.334778,792.269531 229.740936,794.102051 
	C230.336945,796.791077 229.899506,799.709167 229.902359,803.022095 
z"/>
<path fill="#11173A" opacity="1.000000" stroke="none" 
	d="
M770.270020,807.275146 
	C770.945862,802.772156 771.536011,798.701233 772.126099,794.630249 
	C772.366089,794.607483 772.606018,794.584656 772.846008,794.561890 
	C773.648743,800.120667 774.451477,805.679504 775.255066,811.244568 
	C770.951294,812.801880 769.323486,811.777771 770.270020,807.275146 
z"/>
<path fill="#0404FE" opacity="1.000000" stroke="none" 
	d="
M445.109192,378.410706 
	C437.396271,378.472321 430.114288,378.472321 422.503296,378.472321 
	C422.503296,353.713165 422.503296,328.808441 422.503296,303.206146 
	C433.792206,303.186157 445.250122,301.475708 455.998566,307.015900 
	C462.229675,310.227600 465.449646,315.787415 467.057892,322.312622 
	C470.103271,334.668793 469.973877,347.077850 466.774414,359.377747 
	C463.928375,370.319061 456.936676,376.859100 445.109192,378.410706 
z"/>
</svg>