<?xml version="1.0" encoding="utf-8"?>
<!-- Generator: Adobe Illustrator 16.0.2, SVG Export Plug-In . SVG Version: 6.00 Build 0)  -->
<!DOCTYPE svg PUBLIC "-//W3C//DTD SVG 1.1//EN" "http://www.w3.org/Graphics/SVG/1.1/DTD/svg11.dtd">
<svg version="1.1" id="Layer_1" xmlns="http://www.w3.org/2000/svg" xmlns:xlink="http://www.w3.org/1999/xlink" x="0px" y="0px"
	 width="31px" height="26px" viewBox="0 1 31 26" enable-background="new 0 1 31 26" xml:space="preserve">
<g id="Group_28" transform="translate(17568 10431)">
	<g id="swords" transform="translate(-17562.877 -10427.898)" display="none">
		<path id="Path_23" display="inline" fill="#5D5D5D" d="M20.351,17.512l-2.229-2.229l-2.83,2.83l2.231,2.229
			c0.828,0.736,2.095,0.66,2.83-0.168c0.674-0.758,0.674-1.902,0-2.662H20.351z"/>
		<path id="Path_24" display="inline" fill="#5D5D5D" d="M17.631,11.58c-0.681-0.682-1.783-0.682-2.464-0.001v0.001l-3.581,3.58
			c-0.681,0.681-0.681,1.783,0,2.465c0.681,0.68,1.784,0.68,2.464,0l3.581-3.582C18.312,13.363,18.312,12.26,17.631,11.58
			C17.632,11.58,17.632,11.58,17.631,11.58z"/>
		<path id="Path_25" display="inline" fill="#5D5D5D" d="M0.527,17.513L0.527,17.513c-0.728,0.784-0.69,2.009,0.085,2.747
			c0.741,0.769,1.96,0.805,2.746,0.082l2.23-2.229l-2.83-2.83L0.527,17.513z"/>
		<path id="Path_26" display="inline" fill="#5D5D5D" d="M5.433,9.574l4.141-4.141L4.32,0.179C4.205,0.063,4.049,0,3.887,0H0.612
			C0.274,0,0,0.273,0,0.611v3.275c0,0.162,0.064,0.317,0.179,0.432L5.433,9.574z"/>
		<path id="Path_27" display="inline" fill="#5D5D5D" d="M20.877,3.887V0.611c0-0.337-0.273-0.611-0.61-0.612H16.99
			c-0.162,0-0.317,0.064-0.433,0.179l-10.26,10.26l4.141,4.142l10.26-10.261C20.813,4.205,20.878,4.049,20.877,3.887z"/>
		<path id="Path_28" display="inline" fill="#5D5D5D" d="M5.71,11.58c-0.68-0.682-1.784-0.682-2.464,0
			c-0.681,0.68-0.681,1.783,0,2.463l0,0l3.581,3.582c0.68,0.68,1.783,0.68,2.464,0c0.681-0.682,0.681-1.784,0-2.465l0,0L5.71,11.58z
			"/>
	</g>
	<path id="Rectangle_110" fill="#E30513" d="M-17565-10430h25c1.656,0,3,1.343,3,3v20c0,1.656-1.344,3-3,3h-25c-1.656,0-3-1.344-3-3
		v-20C-17568-10428.657-17566.656-10430-17565-10430z"/>
	<g enable-background="new    ">
		<path fill="#FFFFFF" d="M-17558.68-10418.25h4.93v6.156c-1.34,0.458-2.811,0.688-4.414,0.688c-1.762,0-3.121-0.511-4.082-1.531
			s-1.441-2.477-1.441-4.367c0-1.844,0.525-3.278,1.578-4.305c1.051-1.026,2.525-1.539,4.422-1.539c0.719,0,1.396,0.067,2.035,0.203
			c0.637,0.136,1.193,0.308,1.668,0.516l-0.977,2.422c-0.824-0.406-1.727-0.609-2.711-0.609c-0.902,0-1.598,0.293-2.09,0.879
			s-0.738,1.423-0.738,2.512c0,1.067,0.223,1.882,0.668,2.441s1.086,0.84,1.926,0.84c0.457,0,0.879-0.044,1.266-0.133v-1.789h-2.039
			V-10418.25z"/>
		<path fill="#FFFFFF" d="M-17540.734-10417.289c0,1.922-0.473,3.383-1.414,4.383c-0.943,1-2.324,1.5-4.141,1.5
			c-1.793,0-3.166-0.503-4.121-1.508c-0.957-1.005-1.434-2.469-1.434-4.391c0-1.901,0.475-3.353,1.426-4.355
			c0.949-1.003,2.332-1.504,4.145-1.504c1.816,0,3.195,0.497,4.133,1.492S-17540.734-10419.216-17540.734-10417.289z
			 M-17548.594-10417.289c0,2.208,0.768,3.313,2.305,3.313c0.781,0,1.359-0.269,1.738-0.805c0.377-0.536,0.566-1.372,0.566-2.508
			c0-1.141-0.191-1.983-0.574-2.527s-0.955-0.816-1.715-0.816C-17547.82-10420.633-17548.594-10419.519-17548.594-10417.289z"/>
	</g>
</g>
</svg>
